<svg xmlns="http://www.w3.org/2000/svg" viewBox="0 0 966.6 255.1" xml:space="preserve"><path fill="#ffeb00" d="M-.3.4h966.6v255.1H-.3z"/><path d="M307.1 104.6s-4.3 18-2.6 39.1c1.7 21.8 10.2 34.5 10.2 34.5 14.5-11.4 23.8-29.3 23.8-49.5 0-23.3-12.3-44.3-32.3-55.1 0 0-1 4.8-3.4 9.1l4.3 21.9zm-89.7 24.1c0 20.3 9.5 38.3 24.1 49.7 0 0 8.2-14.3 9.8-34.7 1.7-21.3-2.6-39.1-2.6-39.1l4.3-21.9c-2.3-4.2-3.4-9.1-3.4-9.1-19.9 10.8-32.2 31.8-32.2 55.1zm10.5 46.5-10.3 5.8c5.9.4 17.6 3.2 27.6 8.1-7.5-4.2-13.9-9.9-17.3-13.9zm-4.6-1.6 2.1-1.2c-2.1-2.6-3.7-4.9-5.4-7.7l-18.1 4.9c4.1 3 12.6 7.7 21.4 4zm-11-10.6 5.9-1.6c-1.5-2.9-2.8-5.5-3.8-8.6l-27.7 3.4c3.5 3.8 11.9 10.3 25.6 6.8zm-65-79.2c1.8 4.8 7.6 15.7 23.6 15.7h33.9c-.8-6.8 0-12.6.6-15.7h-58.1zm29.5 35.1h33.9c.1-.6.3-1.6.4-2.3-2.8-3.8-4.9-9.7-5.6-13.5h-52.3c1.7 4.9 7.6 15.8 23.6 15.8zm10.4 17.1 23.2-.7c-.4-3.8-.5-8.5 0-12.8h-48.9c2.6 4.6 9.9 13.9 25.7 13.5zm11.6 15 14.3-1.7c-1-3.4-1.8-6.8-2.3-10.4-3.4.1-37.8 1.1-37.8 1.1 3 4.4 10.9 12.8 25.8 11zm-42.7-51.5c-8.2-4.7-11.5-12.5-12.6-15.7h-48c2.3 4.9 9 15.7 23.8 15.7h36.8zm-.2 19.4h6.1c-8.2-4.7-11.5-12.5-12.6-15.7h-45.9c3.1 5 11.2 15.7 24.7 15.7h27.7zm15.5 17.5c-8.6-4.1-12.7-11.2-14.1-13.9h-41.5c3.4 4.9 11.9 14.8 25.9 14.8.2 0 29.7-.9 29.7-.9zm-3 18.3 15.3-1.9c-8.7-3.4-13.4-10.1-14.9-12.7l-36.6 1.1c5 5.2 17.6 15.8 36.2 13.5zm22.5 14 7.1-1.9c-8.7-2.1-14-7.8-15.8-10.1l-26.7 3.3c6.1 4.5 20.1 12.9 35.4 8.7zm23.4 9.8c-8.1-.8-14.6-5.9-16.8-7.8l-5.7 1.5-10 2.7c6.8 3.3 20.9 8.6 32.5 3.6zm113.2-3.3c-3.5 4-9.8 9.7-17.4 13.9 10-4.9 21.8-7.7 27.6-8.1l-10.2-5.8zm26-5.6-18.1-4.9c-1.7 2.9-3.4 5.1-5.4 7.7l2.1 1.2c8.8 3.7 17.3-1 21.4-4zm15.3-13.4-27.7-3.4c-1.1 3-2.4 5.7-3.8 8.6l5.9 1.6c13.6 3.5 22-3 25.6-6.8zm39.3-72.4h-58.2c.6 3.1 1.5 8.9.6 15.7h33.9c16.1 0 21.9-10.9 23.7-15.7zm-5.9 19.3h-52.3c-.8 3.7-2.8 9.6-5.6 13.5.1.7.3 1.6.4 2.3h33.9c16 0 21.8-10.9 23.6-15.8zm-8.2 19.4h-49c.3 2.8.4 9.7 0 12.8l23.2.7c15.8.4 23.1-8.9 25.8-13.5zM382.4 140s-34.4-1-37.8-1.1c-.5 3.6-1.3 7-2.3 10.4l14.3 1.7c14.9 1.8 22.8-6.6 25.8-11zm16.9-40.5h36.8c14.9 0 21.5-10.8 23.8-15.7h-48c-1.1 3.2-4.4 11.1-12.6 15.7zm-5.9 19.4h33.8c13.5 0 21.6-10.7 24.7-15.7H406c-1 3.2-4.3 11-12.6 15.7zm-9.4 17.5s29.5.9 29.7.9c14 0 22.6-9.9 25.9-14.8h-41.5c-1.4 2.8-5.6 9.8-14.1 13.9zm-12.3 16.5 15.3 1.9c18.6 2.2 31.3-8.3 36.3-13.5l-36.6-1.1c-1.6 2.6-6.3 9.3-15 12.7zm-14.4 13.9 7.1 1.9c15.3 4.1 29.3-4.3 35.4-8.8l-26.7-3.3c-1.8 2.4-7.1 8.1-15.8 10.2zm-16.2 11.7c11.6 5 25.7-.3 32.4-3.6l-15.7-4.2c-2.2 2-8.6 7-16.7 7.8zm-39.1-71c-4.5 2.2-12 8-14.4 23.2-2.3 14.9-.4 27.8 1.9 34.6-.2-6.1.2-15.9 2.1-24.5 3.3-14.7 8-27.3 10.4-33.3z"/><path d="M295 188.5c5.9-1.8 11.5-4.5 16.6-8 0 0-9.1-15-10.6-36.5-.6-8.7-.4-16.7.1-23.2-2 5.9-4.1 13.1-5.9 21-4.1 18.5-.7 33.9-.7 34.1l.5 12.6zm-26.7-57.7c-2.4-15.2-9.9-21.1-14.4-23.2 2.4 6 7.1 18.6 10.4 33.4 1.9 8.6 2.3 18.3 2.1 24.5 2.2-6.9 4.2-19.8 1.9-34.7zm-12.9-28c7.9 0 23.8-.3 31.6-3.4 6.1-2.4 8-4.5 7.3-11.8-.8-7.8-7.5-15.2-9.3-17-1.5-.2-5.5-.6-7.1-.6-1.1 0-3.3.2-5.1.4.7 2.5.8 6.7-2.2 13.4-3.7 7.7-10.8 15-15.2 19z"/><path d="M253.4 64.6c-.1.1-.2.4-.3.8-1.9 7.6 3.7 16.7 3.7 16.7l-3.5 17.6c4.2-3.9 10.6-10.6 13.8-17.5 3.2-7 2.3-10.4 1.8-11.6-2.5-.1-9.3-1-14.8-5.6-.2-.3-.6-.7-.7-.4zm7.3 77.1c-1.7-7.9-3.9-15.1-5.9-21 .6 6.5.7 14.5.1 23.2-1.4 20.4-10.4 36.6-10.4 36.6 5 3.4 10.4 6.1 16.3 7.8l.6-12.6s3.3-15.5-.7-34z"/><path d="M290.8 178.4c-.1-.4-.2-1.2-.4-2.5-1.8-2.6-10.6-18.9-6.4-45.6 3.1-20 14.7-25.6 19.2-27L299 82.1s5.5-8.8 3.7-16.7c-.1-.5-.2-.7-.3-.8-.1-.2-.5.2-.8.4-4 3.4-8.7 4.7-11.9 5.2 3 3.5 7.6 10 8.3 16.9.9 9.6-2.5 12.8-9.6 15.6-7.4 2.9-20.6 3.6-29.4 3.7 5 3.6 10.7 10.5 12.8 23.8 4.2 26.7-4.6 43-6.4 45.6-.2 1.3-.4 2.1-.4 2.5l-.2 8.7c7.2 6.3 19.6 6 26.4 0l-.4-8.6zM110.7 80.2h99.5s-5.7 15.2 2 31.3c4.3-16.3 13.7-29.7 27.2-39.4-.3-1.2-1.2-3.4-3.8-5.4-3-2.2-8.1-2.2-8.1-2.2H91.1c2.2 4.8 8.2 15.6 19.6 15.7zm353.5-15.8H327.8c-.1 0-5.1 0-8.1 2.2-2.6 1.9-3.5 4.1-3.8 5.4 13.5 9.7 22.9 23.1 27.2 39.4 7.7-15.7 2-31.3 2-31.3h99.5c11.5 0 17.5-10.8 19.6-15.7z"/><g><path d="M562 153.9h-40V88.8h-15.3v78.5H562zM658.9 153.9h-39.2v-20.4h33v-12.4h-33v-18.9h38.2V88.8h-53.5v78.5h54.5zM739.7 167.3l30.6-78.5h-16l-21 59.3-21.2-59.3H696l30.9 78.5zM814.9 155.2c3.4 3.8 7.4 6.9 12 9.2 4.6 2.4 9.8 3.5 15.4 3.5 3.2 0 6.4-.4 9.7-1.2 3.3-.8 6.4-2 9.3-3.5 2.9-1.5 5.5-3.4 7.8-5.7 2.3-2.2 4.1-4.8 5.4-7.8l-12.5-7.2c-.9 2.1-2.1 4-3.5 5.5-1.5 1.5-3.1 2.7-4.8 3.7-1.7 1-3.6 1.7-5.5 2.1-1.9.4-3.8.7-5.5.7-3.4 0-6.5-.7-9.3-2.2-2.8-1.5-5.3-3.4-7.3-5.9-2-2.4-3.6-5.3-4.7-8.5s-1.7-6.5-1.7-10c0-3.1.5-6.2 1.4-9.3 1-3.1 2.4-5.9 4.3-8.4s4.2-4.5 7.1-6c2.8-1.5 6.2-2.3 10-2.3 1.8 0 3.6.2 5.4.6 1.8.4 3.6 1 5.3 1.9 1.7.9 3.3 2.1 4.8 3.6s2.7 3.4 3.8 5.6l11.7-8.1c-2.6-5.1-6.5-9.2-11.8-12.4-5.3-3.2-11.5-4.8-18.7-4.8-6.1 0-11.6 1.1-16.4 3.4-4.8 2.3-8.8 5.3-12.2 9-3.3 3.7-5.8 7.9-7.6 12.5-1.7 4.7-2.6 9.4-2.6 14.2 0 5 .9 9.9 2.8 14.8s4.5 9.2 7.9 13z"/></g></svg>